<svg>
  <symbol id='meh-face' viewBox="0 0 24 24" xmlns="http://www.w3.org/2000/svg">
    <g opacity="0.8" fill="none">
      <path d="M12 22C17.5228 22 22 17.5228 22 12C22 6.47715 17.5228 2 12 2C6.47715 2 2 6.47715 2 12C2 17.5228 6.47715 22 12 22Z" stroke="#CF2C00" stroke-width="2" stroke-linecap="round" stroke-linejoin="round" />
      <path d="M8 15H16" stroke="#CF2C00" stroke-width="2" stroke-linecap="round" stroke-linejoin="round" />
      <path d="M9 9H9.01" stroke="#CF2C00" stroke-width="2" stroke-linecap="round" stroke-linejoin="round" />
      <path d="M15 9H15.01" stroke="#CF2C00" stroke-width="2" stroke-linecap="round" stroke-linejoin="round" />
    </g>
  </symbol>

  <symbol id="dots" width="6" height="18" viewBox="0 0 6 18" fill="none" xmlns="http://www.w3.org/2000/svg">
    <g clip-path="url(#clip0)" >
      <circle cx="3" cy="2" r="2" fill="black" fill-opacity="0.2" />
      <circle cx="3" cy="9" r="2" fill="black" fill-opacity="0.2" />
      <circle cx="3" cy="16" r="2" fill="black" fill-opacity="0.2" />
    </g>
    <defs>
      <clipPath id="clip0">
        <rect x="0" width="6" height="18" fill="white" />
      </clipPath>
    </defs>
  </symbol>

  <symbol id="cross" width="24" height="24" viewBox="0 0 20 20" fill="none" xmlns="http://www.w3.org/2000/svg">
    <path d="M1 1L19 19" stroke="#0D0D0D" stroke-width="2" stroke-linecap="round" />
    <path d="M19 1L1 19" stroke="#0D0D0D" stroke-width="2" stroke-linecap="round" />
  </symbol>

  <symbol id="format" width="24" height="24" viewBox="0 0 24 24" fill="none" xmlns="http://www.w3.org/2000/svg">
    <g opacity="0.8">
      <path d="M21 10H7" stroke="#0D0D0D" stroke-width="2" stroke-linecap="round" stroke-linejoin="round" />
      <path d="M11 6H3" stroke="#0D0D0D" stroke-width="2" stroke-linecap="round" stroke-linejoin="round" />
      <path d="M12 14H7" stroke="#0D0D0D" stroke-width="2" stroke-linecap="round" stroke-linejoin="round" />
      <path d="M7 18H3" stroke="#0D0D0D" stroke-width="2" stroke-linecap="round" stroke-linejoin="round" />
    </g>
  </symbol>

  <symbol id="full-screen" width="20" height="20" viewBox="0 0 20 20" fill="none" xmlns="http://www.w3.org/2000/svg">
    <path d="M6 1H3C2.46957 1 1.96086 1.21071 1.58579 1.58579C1.21071 1.96086 1 2.46957 1 3V6M19 6V3C19 2.46957 18.7893 1.96086 18.4142 1.58579C18.0391 1.21071 17.5304 1 17 1H14M14 19H17C17.5304 19 18.0391 18.7893 18.4142 18.4142C18.7893 18.0391 19 17.5304 19 17V14M1 14V17C1 17.5304 1.21071 18.0391 1.58579 18.4142C1.96086 18.7893 2.46957 19 3 19H6" stroke="#0D0D0D" stroke-width="2" stroke-linecap="round" stroke-linejoin="round" />
  </symbol>

  <symbol id="log-out" width="24" height="24" viewBox="0 0 24 24" fill="none" xmlns="http://www.w3.org/2000/svg">
    <g opacity="0.8">
      <path d="M9 21H5C4.46957 21 3.96086 20.7893 3.58579 20.4142C3.21071 20.0391 3 19.5304 3 19V5C3 4.46957 3.21071 3.96086 3.58579 3.58579C3.96086 3.21071 4.46957 3 5 3H9" stroke="#0D0D0D" stroke-width="2" stroke-linecap="round" stroke-linejoin="round" />
      <path d="M16 17L21 12L16 7" stroke="#0D0D0D" stroke-width="2" stroke-linecap="round" stroke-linejoin="round" />
      <path d="M21 12H9" stroke="#0D0D0D" stroke-width="2" stroke-linecap="round" stroke-linejoin="round" />
    </g>
  </symbol>

  <symbol id="logo" width="115" height="30" viewBox="0 0 115 30" fill="none" xmlns="http://www.w3.org/2000/svg">
    <circle cx="15" cy="15" r="15" fill="#C4C4C4" />
    <circle cx="70" cy="15" r="15" fill="#C4C4C4" />
    <rect x="35" width="15" height="30" fill="#C4C4C4" />
    <path d="M100 0H115L100 30H85L100 0Z" fill="#C4C4C4" />
  </symbol>

  <symbol width="24" height="24" viewBox="0 0 20 20" fill="none" xmlns="http://www.w3.org/2000/svg">
    <path d="M1 6H4C4.53043 6 5.03914 5.78929 5.41421 5.41421C5.78929 5.03914 6 4.53043 6 4V1M14 1V4C14 4.53043 14.2107 5.03914 14.5858 5.41421C14.9609 5.78929 15.4696 6 16 6H19M19 14H16C15.4696 14 14.9609 14.2107 14.5858 14.5858C14.2107 14.9609 14 15.4696 14 16V19M6 19V16C6 15.4696 5.78929 14.9609 5.41421 14.5858C5.03914 14.2107 4.53043 14 4 14H1" stroke="#0D0D0D" stroke-width="2" stroke-linecap="round" stroke-linejoin="round"/>
  </symbol>
</svg>